<svg width="181" height="50" viewBox="0 0 181 50" fill="none" xmlns="http://www.w3.org/2000/svg">
<path d="M40 0H10C4.47715 0 0 4.47715 0 10V40C0 45.5228 4.47715 50 10 50H40C45.5228 50 50 45.5228 50 40V10C50 4.47715 45.5228 0 40 0Z" fill="#3B82F6"/>
<path d="M26.0039 9.5625H31.8633V29.25C31.8633 31.0599 31.4596 32.6615 30.6523 34.0547C29.8581 35.4349 28.7318 36.5026 27.2734 37.2578C25.8151 38.013 24.168 38.3906 22.332 38.3906C19.3242 38.3906 16.9805 37.6289 15.3008 36.1055C13.6211 34.569 12.7812 32.401 12.7812 29.6016H18.6797C18.6797 30.9948 18.9727 32.0234 19.5586 32.6875C20.1445 33.3516 21.069 33.6836 22.332 33.6836C23.4518 33.6836 24.3438 33.2995 25.0078 32.5312C25.6719 31.763 26.0039 30.6693 26.0039 29.25V9.5625Z" fill="white"/>
<path d="M97.5031 26.8906H84.0656V12.375H97.5031V26.8906ZM94.7219 24.1094V15.125H86.8469V24.1094H94.7219ZM83.2375 33.2969C82.1958 33.6302 81.6281 33.8021 81.5344 33.8125V39.5312H78.7844V34.6094C76.201 35.4115 73.7375 36.0312 71.3937 36.4688L70.6594 33.875C71.6698 33.6875 72.3625 33.5469 72.7375 33.4531V15.0312H71.2375V12.375H82.9094V15.0312H81.5344V31.125C82.0448 30.9896 82.4615 30.8594 82.7844 30.7344L83.2375 33.2969ZM78.7844 18.9531V15.0312H75.425V18.9531H78.7844ZM78.7844 25.5781V21.4844H75.425V25.5781H78.7844ZM78.7844 31.8906V28.1719H75.425V32.7812C76.6646 32.5104 77.7844 32.2135 78.7844 31.8906ZM99.0969 38.25L96.7062 39.7344C95.5708 36.8594 93.9406 33.6562 91.8156 30.125L94.2062 28.7812C96.0812 31.7188 97.7115 34.875 99.0969 38.25ZM89.7844 29.9688C88.1906 33.8229 86.399 37.0417 84.4094 39.625L82.2375 37.7812C84.1646 35.2083 85.8521 32.2188 87.3 28.8125L89.7844 29.9688ZM117.309 16.6562L114.95 18.2812C113.69 16.4792 112.143 14.7083 110.309 12.9688L112.669 11.375C114.638 13.1979 116.184 14.9583 117.309 16.6562ZM137.372 32.0781C137.236 34.1198 137.08 35.5781 136.903 36.4531C136.726 37.3177 136.367 38.0052 135.825 38.5156C135.294 39.0365 134.653 39.3281 133.903 39.3906C133.164 39.4635 131.549 39.5 129.059 39.5C126.955 39.5 125.289 39.4688 124.059 39.4062C122.83 39.3438 122.018 39.2083 121.622 39C121.226 38.7917 120.867 38.4583 120.544 38C120.221 37.5521 120.059 37.0104 120.059 36.375V22.6094H133.028V15.2188H119.356V12.5312H135.778V25.2969H122.888V35.7031C122.888 36.151 123.07 36.4427 123.434 36.5781C123.809 36.7135 125.502 36.7812 128.513 36.7812C131.158 36.7812 132.731 36.7188 133.231 36.5938C133.731 36.4688 134.039 36.125 134.153 35.5625C134.278 35 134.424 33.5104 134.591 31.0938L137.372 32.0781ZM119.513 33.7188C117.46 35.625 115.445 37.1458 113.466 38.2812L112.294 35.7656C112.585 35.5156 112.731 35.1823 112.731 34.7656V22.7344H109.341V19.9844H115.559V33.5156C116.414 32.8906 117.382 32.0938 118.466 31.125L119.513 33.7188Z" fill="#3B82F6"/>
</svg>
